# xmcd
#
# Track frame offsets: 
#        182
#        11442
#        21212
#        32357
#        43527
#        57790
#        73890
#        87845
#        104582
#        117670
#        128707
#        141332
#        159757
#        175190
#        192992
#        206957
#        223840
#        235795
#        249825
#        267872
#
# Disc length: 3791 seconds
#
# Revision: 5
# Processed by: cddbd v1.5.2PL0 Copyright (c) Steve Scherf et al.
# Submitted via: ExactAudioCopyFreeDBPlugin 1.0
#
DISCID=1a0ecd14
DTITLE=Various Artist - Country Christmas [CD 2)
DYEAR=1997
DGENRE=Country
TTITLE0=Johnny Cash - I Heard The Bells On Christmas Day
TTITLE1=Willie Nelson - Jingle Bells
TTITLE2=Merle Haggard - Goin' Home For Christmas
TTITLE3=John Denver - Christmas For Cowboys
TTITLE4=Michael Martin Murphey - Corn, Water And Wood
TTITLE5=Alabama - Christmas In Dixie
TTITLE6=Travis Tritt - All I Want For Christmas Dear Is You
TTITLE7=Vince Gill - It Won't Be The Same This Year
TTITLE8=Doug Supernaw - Christmas Will Never Be The Same
TTITLE9=The Forester Sisters - Little Toy Trains
TTITLE10=Ricky Van Shelton - Pretty Paper
TTITLE11=Kathy Mattea - There's A New Kid In Town
TTITLE12=Steve Wariner - Our Saviour Is Born
TTITLE13=Diamond Rio - Christmas Spirit
TTITLE14=Emmylou Harris - Beautiful Star Of Bethlehem
TTITLE15=Restless Heart - Little Drummer Boy
TTITLE16=Dolly Parton - O Little Town Of Bethlehem
TTITLE17=John Berry - Away In A Manger
TTITLE18=The Judds - Oh Holy Night
TTITLE19=The Tractors - Silent Night, Christmas Blue
EXTD=YEAR: 1997
EXTT0=
EXTT1=
EXTT2=
EXTT3=
EXTT4=
EXTT5=
EXTT6=
EXTT7=
EXTT8=
EXTT9=
EXTT10=
EXTT11=
EXTT12=
EXTT13=
EXTT14=
EXTT15=
EXTT16=
EXTT17=
EXTT18=
EXTT19=
PLAYORDER=
